<svg width="87" height="75" viewBox="0 0 87 75" fill="none" xmlns="http://www.w3.org/2000/svg">
<path d="M2.83713 0C1.2705 0 0 1.25949 0 2.81266C0 4.36577 1.26979 5.62531 2.83713 5.62531H14.1551C18.8504 17.1543 23.475 28.7044 28.1327 40.2541L23.8477 50.4785C23.4889 51.3312 23.5898 52.3585 24.1076 53.1262C24.6261 53.8939 25.5456 54.3785 26.4777 54.3746H73.7604C75.2591 54.3955 76.6377 53.0484 76.6377 51.5619C76.6377 50.0762 75.2591 48.7283 73.7604 48.7493H30.7331L33.1856 42.9489L78.7256 39.3457C79.9176 39.2528 80.9967 38.3321 81.2672 37.1779L86.9415 12.803C87.3129 11.161 85.861 9.36977 84.1638 9.37496H21.7793L18.7061 1.7578C18.2852 0.726526 17.1981 0 16.0761 0H2.83713ZM24.0553 15.0003H80.5868L76.1838 33.926L33.0687 37.3246L24.0553 15.0003ZM35.9354 56.2501C30.7461 56.2501 26.4788 60.4805 26.4788 65.625C26.4788 70.7695 30.7461 75 35.9354 75C41.1247 75 45.3919 70.7695 45.3919 65.625C45.3919 60.4805 41.1247 56.2501 35.9354 56.2501ZM64.305 56.2501C59.1157 56.2501 54.8485 60.4805 54.8485 65.625C54.8485 70.7695 59.1157 75 64.305 75C69.4943 75 73.7616 70.7695 73.7616 65.625C73.7616 60.4805 69.4943 56.2501 64.305 56.2501ZM35.9354 61.8754C38.058 61.8754 39.7177 63.5207 39.7177 65.625C39.7177 67.7294 38.058 69.3747 35.9354 69.3747C33.8127 69.3747 32.1531 67.7287 32.1531 65.625C32.1531 63.5207 33.8134 61.8754 35.9354 61.8754ZM64.305 61.8754C66.4277 61.8754 68.0873 63.5214 68.0873 65.625C68.0873 67.7294 66.427 69.3747 64.305 69.3747C62.1824 69.3747 60.5227 67.7294 60.5227 65.625C60.5227 63.5207 62.1824 61.8754 64.305 61.8754Z" fill="#3897F1"/>
</svg>
