<svg width="164" height="222" viewBox="0 0 164 222" fill="none" xmlns="http://www.w3.org/2000/svg">
<path d="M105.134 221.827C97.7976 221.827 91.3486 216.317 90.1321 209.012C90.1272 208.987 90.1239 208.962 90.1207 208.938L81.817 153.537L73.515 208.938C72.3708 216.378 65.8985 221.727 58.562 221.728C57.8254 221.728 57.0806 221.674 56.3309 221.563C48.1366 220.303 42.4813 212.595 43.6978 204.377L54.7629 129.897L53.6056 85.5588H14.0031C10.1696 85.5588 6.59114 84.03 3.9248 81.257C1.28452 78.5103 -0.14118 74.7535 0.0110568 70.9528C0.323698 63.4512 6.79279 57.3537 14.4302 57.3537H149.629C157.465 57.3537 163.839 63.8241 163.839 71.7779C163.839 71.8417 163.837 71.9056 163.835 71.9694C163.523 79.4631 157.054 85.5605 149.416 85.5605H110.028L108.871 129.899L119.936 204.375C121.134 212.461 115.734 220.017 107.828 221.475C106.741 221.824 105.733 221.824 105.135 221.824L105.134 221.827ZM104.587 212.927C104.584 212.929 104.582 212.93 104.581 212.93C104.584 212.93 104.586 212.929 104.587 212.927ZM99.1793 207.539C99.6818 210.462 102.237 212.662 105.134 212.662C105.169 212.662 105.206 212.662 105.246 212.664C105.478 212.59 105.719 212.535 105.961 212.499C107.521 212.268 108.884 211.448 109.799 210.189C110.727 208.915 111.107 207.329 110.868 205.724L99.744 130.854C99.7047 130.592 99.6883 130.325 99.6965 130.06L100.98 80.8608C101.045 78.3776 103.077 76.3972 105.562 76.3972H149.414C152.125 76.3972 154.51 74.2479 154.67 71.683C154.619 68.8299 152.377 66.5238 149.629 66.5238L14.4298 66.5254C11.6864 66.5254 9.27693 68.727 9.16881 71.3314C9.11479 72.6654 9.60093 73.9389 10.534 74.9112C11.4555 75.8704 12.6864 76.3975 14.0008 76.3975H58.067C60.5517 76.3975 62.5846 78.3781 62.6487 80.8611L63.932 130.06C63.9386 130.326 63.9222 130.591 63.8846 130.854L52.7603 205.728C52.2873 208.917 54.5478 212.02 57.6937 212.505C60.8578 212.976 63.9629 210.714 64.4457 207.567L75.5666 133.355C75.5878 133.209 75.6173 133.065 75.6533 132.923C76.3964 129.95 78.8714 127.953 81.8111 127.953C84.7508 127.953 87.2259 129.95 87.9689 132.923C88.0049 133.065 88.0327 133.209 88.0556 133.355L99.1793 207.539ZM159.258 71.7789H159.263H159.258Z" fill="#3897F1"/>
<path d="M81.8146 51.0934C67.7278 51.0934 56.2679 39.6319 56.2679 25.5467C56.2679 11.4599 67.7294 0 81.8146 0C95.9014 0 107.361 11.4616 107.361 25.5467C107.361 39.6319 95.9014 51.0934 81.8146 51.0934ZM81.8146 9.16438C72.7822 9.16438 65.4344 16.5122 65.4344 25.5446C65.4344 34.577 72.7822 41.9249 81.8146 41.9249C90.847 41.9249 98.1948 34.577 98.1948 25.5446C98.1948 16.5122 90.847 9.16438 81.8146 9.16438Z" fill="#3897F1"/>
</svg>
