<svg width="170" height="202" viewBox="0 0 170 202" fill="none" xmlns="http://www.w3.org/2000/svg">
<path d="M22.5719 180.759C17.2972 179.217 13.431 176.438 11.2651 172.598C9.09951 168.758 8.7178 164.005 10.1186 158.682C12.8149 148.431 15.4321 139.219 18.1198 130.521L18.1199 130.521C18.3945 129.633 18.4597 129.124 18.3696 128.654C18.2771 128.171 17.9929 127.591 17.2549 126.642C6.44608 112.746 0.972239 96.8384 1.00022 79.3888C0.954408 58.8636 8.09696 40.5926 22.2039 25.1369C31.899 14.5144 44.7306 6.982 59.2971 3.34125L59.2972 3.34123C73.8626 -0.298067 88.7243 0.312661 102.272 5.12298L101.938 6.06535L102.272 5.12299C116.847 10.2982 129.495 19.4063 138.847 31.4665C148.278 43.6265 153.64 57.8733 154.337 72.6631C154.779 82.0113 156.629 89.5225 160.134 96.349L160.134 96.3491C162.074 100.129 163.717 104.043 165.289 107.79L165.309 107.838L165.309 107.838L165.315 107.851C165.682 108.726 166.047 109.598 166.418 110.469L166.418 110.468C168.256 114.799 170.286 120.792 167.947 126.173C165.614 131.546 159.917 134.105 155.552 135.679M22.5719 180.759C22.5718 180.759 22.5718 180.759 22.5718 180.759L22.8525 179.799L22.5719 180.759ZM22.5719 180.759C42.8545 186.692 64.9144 193.053 90.0099 200.207C91.8696 200.737 93.6831 201 95.4255 201C102.468 201 108.08 196.72 110.694 189.262C112.237 184.857 113.41 180.394 114.255 177.018M114.255 177.018C114.286 176.894 114.316 176.788 114.343 176.697M114.255 177.018C114.255 177.017 114.255 177.017 114.255 177.016L113.285 176.773M114.255 177.018L113.285 176.773M114.343 176.697C114.383 176.698 114.425 176.699 114.47 176.701M114.343 176.697C114.403 176.499 114.453 176.373 114.485 176.301L114.468 176.701C114.469 176.701 114.47 176.701 114.47 176.701M114.343 176.697C114.021 176.692 113.875 176.719 113.852 176.724L113.644 175.746M114.47 176.701C120.573 176.956 126.699 176.849 132.59 176.747C138.993 176.636 144.408 174.461 148.283 170.637C152.157 166.814 154.418 161.414 154.644 154.987C154.859 148.909 154.861 142.761 154.652 136.714C154.64 136.363 154.635 136.18 154.646 136.052M114.47 176.701C114.471 176.701 114.472 176.701 114.472 176.701L114.487 176.295C114.504 176.258 114.515 176.237 114.52 176.228L114.49 176.212L114.51 175.701M154.646 136.052C154.667 136.039 154.695 136.024 154.731 136.006C154.897 135.923 155.146 135.826 155.552 135.679M154.646 136.052C154.647 136.051 154.647 136.049 154.647 136.048C154.651 136.004 154.655 135.987 154.655 135.988C154.655 135.988 154.646 136.019 154.618 136.058C154.604 136.077 154.593 136.086 154.593 136.086C154.593 136.086 154.607 136.074 154.646 136.052ZM155.552 135.679C155.552 135.679 155.552 135.679 155.553 135.679L155.213 134.738L155.552 135.679ZM113.644 175.746L114.488 176.211L114.51 175.701M113.644 175.746C113.769 175.719 114.036 175.684 114.51 175.701M113.644 175.746C113.574 175.872 113.437 176.17 113.285 176.773M114.51 175.701L113.285 176.773M158.583 121.971C158.775 121.457 158.829 120.644 158.599 119.416C158.359 118.133 157.83 116.511 156.982 114.514L156.981 114.513C156.605 113.624 156.229 112.731 155.856 111.841L155.853 111.833C154.33 108.205 152.775 104.5 151.016 101.073C146.794 92.8525 144.601 83.9667 144.091 73.1536C142.88 47.4897 124.727 24.0268 98.8528 14.8389L99.1875 13.8966L98.8528 14.8389C75.1501 6.4215 46.7242 13.5258 29.7684 32.1025L29.7684 32.1026C17.2619 45.8028 11.2209 61.252 11.2616 79.3862L11.2616 79.39C11.2385 94.5023 15.9709 108.252 25.3414 120.301L158.583 121.971ZM158.583 121.971L158.545 122.058C158.326 122.563 157.777 123.18 156.682 123.876C155.602 124.562 154.086 125.265 152.088 125.986C149.497 126.92 147.503 128.296 146.189 130.187C144.873 132.081 144.308 134.393 144.4 137.074L144.4 137.074C144.601 142.882 144.598 148.788 144.393 154.627C144.261 158.363 143.052 161.264 141.045 163.245C139.038 165.225 136.131 166.385 132.415 166.45C126.632 166.551 120.689 166.654 114.898 166.411C113.033 166.332 110.817 166.594 108.831 167.794C106.816 169.011 105.154 171.122 104.307 174.509C103.509 177.699 102.418 181.85 101.018 185.845C100.232 188.086 99.1692 189.437 97.9037 190.12C96.6455 190.799 94.9967 190.921 92.8141 190.299C67.7394 183.15 45.704 176.796 25.4422 170.87C22.6021 170.039 20.9893 168.934 20.1954 167.531C19.4017 166.127 19.2863 164.176 20.0386 161.316C22.6992 151.203 25.2781 142.13 27.919 133.577L158.583 121.971ZM28.428 126.675C28.8596 128.888 28.6668 131.158 27.9191 133.577L28.428 126.675ZM28.428 126.675C27.997 124.464 26.9566 122.377 25.3415 120.301L28.428 126.675Z" fill="#3897F1" stroke="#3897F1" stroke-width="2"/>
</svg>
