<svg width="225" height="187" viewBox="0 0 225 187" fill="none" xmlns="http://www.w3.org/2000/svg">
<path d="M214.55 33.1729C212.163 38.4346 209.803 43.6958 207.416 48.9575L195.958 74.2802C195.087 76.2216 194.216 78.163 193.318 80.1043C195.874 79.429 198.429 78.7537 201.013 78.0785C194.076 75.096 187.167 72.1417 180.23 69.1592C179.247 68.7372 178.264 68.3152 177.253 67.8931C175.343 67.0772 173.49 66.7677 171.58 67.8931C169.867 68.9061 168.799 70.763 168.799 72.7607V83.565V109.478V140.85V167.974C168.799 172.363 168.603 176.78 168.799 181.17V181.367C170.681 179.481 172.535 177.624 174.417 175.739H162.144H132.626H96.9305H66.0652C61.0661 175.739 56.0391 175.542 51.0397 175.739H50.815L56.4322 181.367V170.591C56.4322 161.924 56.4322 153.258 56.4041 144.564C56.4041 134.126 56.3761 123.659 56.3761 113.221C56.3761 104.133 56.348 95.073 56.348 85.9845C56.348 81.5953 56.4603 77.2063 56.348 72.8167V72.6197C56.348 70.622 55.2808 68.765 53.5676 67.7522C51.6578 66.6267 49.8042 66.9362 47.8944 67.7522C40.9296 70.7346 33.9361 73.745 26.9713 76.7275C25.9602 77.1495 24.9773 77.5997 23.9662 78.0217C26.522 78.697 29.0776 79.3722 31.6613 80.0475C29.2741 74.7858 26.8868 69.5246 24.4998 64.2629C20.6522 55.8222 16.8325 47.3815 12.985 38.9402C12.1144 36.9988 11.2156 35.0574 10.345 33.1162C9.67099 35.6766 8.99696 38.237 8.32292 40.8253C14.277 37.449 20.2029 34.0443 26.157 30.6682C35.6777 25.2378 45.1984 19.8078 54.7191 14.3774C56.8816 13.1394 59.0723 11.9014 61.235 10.6634C60.2801 10.9166 59.3533 11.1698 58.3985 11.4231C66.2342 11.3949 74.0977 11.3949 81.9335 11.3668H85.3317C83.5343 9.98812 81.7088 8.60944 79.9112 7.23076C81.7929 18.7101 90.8642 28.1078 101.705 31.6809C113.641 35.6481 127.684 32.4968 136.474 23.4372C140.715 19.048 143.917 13.3079 144.899 7.25905C143.102 8.63774 141.277 10.0164 139.479 11.3951H162.986H166.384C165.429 11.1419 164.502 10.8886 163.547 10.6354C169.501 14.0399 175.456 17.4442 181.437 20.8208C190.986 26.2512 200.535 31.7095 210.056 37.1399C212.247 38.3779 214.409 39.6159 216.6 40.8539C219.155 42.317 222.862 41.5292 224.295 38.8281C225.699 36.1552 224.997 32.6944 222.273 31.119C211.741 25.0979 201.181 19.1046 190.649 13.0835C184.639 9.65087 178.601 6.21814 172.591 2.78545C171.467 2.16647 170.372 1.4912 169.249 0.872164C166.946 -0.337713 163.828 0.0843773 161.329 0.0843773H139.507C137.26 0.0843773 134.48 1.82881 134.086 4.22042C133.918 5.20521 133.721 6.18994 133.44 7.14659C133.272 7.6812 133.103 8.21575 132.907 8.75036C132.851 8.91918 132.654 9.25681 132.654 9.39749C132.991 8.63779 133.047 8.44084 132.879 8.83473C132.823 9.00355 132.738 9.14423 132.654 9.31305C132.205 10.2697 131.727 11.1701 131.166 12.0704C130.913 12.4643 130.66 12.8582 130.379 13.2521C130.211 13.5054 130.014 13.7305 129.846 13.9837C129.565 14.4057 130.688 13.0271 129.846 13.9556C129.115 14.7715 128.413 15.5875 127.599 16.319C127.206 16.6848 126.784 17.0506 126.363 17.4163C125.605 18.0916 126.588 17.3038 126.616 17.2194C126.447 17.4726 125.97 17.6977 125.717 17.8665C124.79 18.5136 123.807 19.1045 122.768 19.6391C122.487 19.7798 120.55 20.849 121.982 20.0611C121.42 20.3706 120.718 20.5394 120.1 20.7645C118.921 21.1584 117.741 21.468 116.533 21.693C116.253 21.7493 115.972 21.7775 115.691 21.8337C114.315 22.087 116.59 21.7775 115.691 21.8337C114.876 21.89 114.09 21.9744 113.276 22.0026C112.012 22.0307 110.748 22.0026 109.484 21.89C109.119 21.8619 108.136 21.8619 109.484 21.9181C109.231 21.9181 108.894 21.8337 108.642 21.7775C107.968 21.6649 107.266 21.5242 106.591 21.3273C105.665 21.1022 103.867 20.849 103.137 20.2018C103.923 20.8771 103.755 20.4551 103.221 20.23C102.912 20.0893 102.632 19.9486 102.351 19.8079C101.789 19.5266 101.227 19.2171 100.666 18.8794C100.188 18.5981 99.7107 18.2886 99.2333 17.9509C98.9805 17.7821 98.7277 17.5851 98.4749 17.4163C97.829 16.9661 98.4749 17.6133 98.7277 17.6133C98.4469 17.6133 97.6324 16.6848 97.4639 16.516C96.9584 16.0658 96.4809 15.5875 96.0316 15.1091C95.6103 14.659 95.2452 14.2088 94.8239 13.7586C94.1499 12.9708 95.0767 14.0118 95.0486 14.04C95.0767 13.9837 94.515 13.3084 94.4307 13.1677C93.7286 12.1548 93.0827 11.1138 92.549 10.0165C92.4086 9.76326 92.2963 9.51004 92.1839 9.2287C92.1278 9.11616 92.0997 9.03175 92.0435 8.9192C91.7907 8.35645 91.8469 8.49716 92.212 9.31311C92.212 8.83479 91.7907 8.18766 91.6223 7.70934C91.2571 6.55575 90.9763 5.34587 90.7797 4.13604C90.3865 1.74448 87.6342 0 85.3592 0C79.04 0.0281365 72.749 0.0281339 66.4303 0.0562724C63.8184 0.0562724 61.1782 -2.31529e-06 58.5668 0.0844087C56.6008 0.140684 55.2247 1.0692 53.5958 1.9977C40.8736 9.25665 28.1226 16.5161 15.4005 23.7751C11.1597 26.1948 6.91867 28.6145 2.67828 31.034C-0.158262 32.6378 -0.579579 35.986 0.656177 38.7432C3.04336 44.0049 5.4306 49.266 7.81763 54.5277C11.6653 62.9685 15.4849 71.4092 19.3325 79.8505C20.2031 81.7918 21.1018 83.7333 21.9724 85.6745C22.506 86.8281 24.1349 87.9817 25.3426 88.263C26.9153 88.6288 28.2072 88.3193 29.6677 87.7003C36.6324 84.7178 43.6259 81.7075 50.5907 78.725C51.6018 78.3029 52.5847 77.8527 53.5958 77.4307C50.7873 75.7988 47.9509 74.195 45.1423 72.5632V83.3392C45.1423 92.0053 45.1423 100.671 45.1703 109.365C45.1703 119.804 45.1984 130.271 45.1984 140.709C45.1984 149.797 45.1984 158.857 45.2265 167.945C45.2265 172.334 45.1142 176.723 45.2265 181.113V181.31C45.2265 184.349 47.8103 186.937 50.8437 186.937H63.1166H92.6339H128.33H159.195C164.194 186.937 169.221 187.078 174.221 186.937H174.445C177.478 186.937 180.062 184.349 180.062 181.31V170.506V144.592V113.22V86.0967C180.062 81.7075 180.259 77.2902 180.062 72.9011V72.7041C177.254 74.3361 174.418 75.9398 171.609 77.5717C178.546 80.5541 185.455 83.5084 192.392 86.4909C193.375 86.9129 194.358 87.335 195.369 87.757C197.925 88.8543 201.688 88.7699 203.064 85.7312C205.451 80.4695 207.838 75.2083 210.198 69.9466L221.656 44.6239C222.526 42.6825 223.397 40.7411 224.296 38.7999C225.503 36.1269 225.138 32.61 222.274 31.0907C219.774 29.8527 215.843 30.3029 214.55 33.1728L214.55 33.1729Z" fill="#3897F1"/>
</svg>
