<svg width="660" height="461" viewBox="0 0 660 461" fill="none" xmlns="http://www.w3.org/2000/svg">
<path fill-rule="evenodd" clip-rule="evenodd" d="M531.753 -138.31C526.987 -154.19 520.693 -169.859 512.808 -185.126C444.021 -318.324 280.28 -370.54 147.083 -301.753C13.8849 -232.966 -38.3305 -69.2248 30.4564 63.9729C91.9935 183.132 229.524 237.48 353.196 198.363C444.568 184.222 470.096 246.754 478.279 311.793C478.537 314.69 478.873 317.587 479.288 320.481C479.469 321.917 479.686 323.299 479.939 324.628C482.689 340.788 487.941 356.804 495.864 372.147C537.205 452.198 635.613 483.579 715.664 442.239C795.716 400.898 827.097 302.49 785.756 222.438C778.193 207.794 768.72 194.778 757.799 183.538L761.589 180.067L580.2 -171.172L531.753 -138.31Z" fill="white"/>
</svg>
