<svg width="325" height="304" viewBox="0 0 325 304" fill="none" xmlns="http://www.w3.org/2000/svg">
<path fill-rule="evenodd" clip-rule="evenodd" d="M333.156 -71.0474C332.41 -81.1768 330.721 -91.3819 328.028 -101.558C304.533 -190.334 213.519 -243.254 124.743 -219.76C35.9672 -196.265 -16.9537 -105.251 6.54121 -16.4751C27.5599 62.9445 102.615 113.668 181.763 106.657C238.284 110.304 245.268 151.084 241.547 191.066C241.317 192.835 241.134 194.613 240.999 196.401C240.917 197.281 240.864 198.134 240.839 198.961C240.343 208.991 241.362 219.267 244.069 229.494C258.189 282.848 312.888 314.653 366.242 300.533C419.596 286.413 451.402 231.714 437.281 178.36C434.698 168.599 430.757 159.559 425.714 151.39L428.44 149.816L366.485 -84.2838L333.156 -71.0474Z" fill="white"/>
</svg>
