<svg width="335" height="328" viewBox="0 0 335 328" fill="none" xmlns="http://www.w3.org/2000/svg">
<path fill-rule="evenodd" clip-rule="evenodd" d="M307.661 -15.0938C309.406 -24.4095 310.319 -34.0185 310.319 -43.8407C310.319 -129.533 240.851 -199 155.159 -199C69.4672 -199 0 -129.533 0 -43.8407C0 32.8202 55.5962 96.4958 128.668 109.066C178.78 125.849 175.349 164.298 162.449 199.475C161.816 201.023 161.223 202.592 160.672 204.181C160.393 204.944 160.145 205.69 159.928 206.419C157.082 215.354 155.546 224.872 155.546 234.75C155.546 286.25 197.296 328 248.797 328C300.297 328 342.047 286.25 342.047 234.75C342.047 225.328 340.65 216.233 338.051 207.66L340.887 206.891V-19.0771L307.661 -15.0938Z" fill="white"/>
</svg>
