<svg width="685" height="270" viewBox="0 0 685 270" fill="none" xmlns="http://www.w3.org/2000/svg">
<path fill-rule="evenodd" clip-rule="evenodd" d="M408.8 -175.154C400.314 -186.161 390.694 -196.543 379.95 -206.135C286.211 -289.819 142.381 -281.669 58.6968 -187.93C-24.9876 -94.1914 -16.837 49.6383 76.9016 133.323C160.761 208.187 284.709 209.554 369.819 141.897C437.121 103.466 475.832 144.779 501.714 193.248C502.783 195.439 503.913 197.606 505.105 199.747C505.677 200.817 506.261 201.834 506.856 202.8C513.848 214.628 522.756 225.595 533.553 235.234C589.89 285.528 676.331 280.629 726.625 224.293C776.919 167.956 772.021 81.5146 715.684 31.2206C705.378 22.0196 694.064 14.6658 682.148 9.13628L684.076 5.28402L436.89 -215.389L408.8 -175.154Z" fill="white"/>
</svg>
