<svg width="244" height="340" viewBox="0 0 244 340" fill="none" xmlns="http://www.w3.org/2000/svg">
<path fill-rule="evenodd" clip-rule="evenodd" d="M326.409 -19.5328C329.344 -29.2563 331.427 -39.3885 332.561 -49.8531C342.457 -141.151 276.468 -223.185 185.171 -233.081C93.8732 -242.977 11.8392 -176.989 1.94288 -85.691C-6.91045 -4.01562 44.9686 70.2459 121.369 92.0776C172.824 115.747 164.723 156.32 146.914 192.31C146.065 193.878 145.257 195.473 144.49 197.094C144.098 197.886 143.743 198.663 143.423 199.426C139.363 208.611 136.631 218.569 135.49 229.087C129.543 283.956 169.202 333.259 224.072 339.206C278.941 345.154 328.243 305.495 334.191 250.625C335.279 240.587 334.841 230.736 333.062 221.302L336.172 220.81L362.268 -19.9395L326.409 -19.5328Z" fill="white"/>
</svg>
