<svg width="862" height="324" viewBox="0 0 862 324" fill="none" xmlns="http://www.w3.org/2000/svg">
<path fill-rule="evenodd" clip-rule="evenodd" d="M557.929 -291.583C548.056 -307.159 536.609 -322.049 523.58 -336.031C409.91 -458.021 218.87 -464.765 96.8811 -351.095C-25.1082 -237.425 -31.8522 -46.3849 81.8179 75.6044C183.508 184.737 347.118 201.636 467.816 122.602C561.424 80.0163 607.543 139.317 635.84 206.512C636.986 209.538 638.216 212.541 639.531 215.516C640.155 216.998 640.802 218.412 641.471 219.759C649.27 236.24 659.705 251.816 672.798 265.868C741.114 339.183 855.928 343.236 929.243 274.921C1002.56 206.605 1006.61 91.7907 938.296 18.4755C925.798 5.06303 911.744 -6.03137 896.673 -14.7887L899.689 -19.6442L599.944 -341.326L557.929 -291.583Z" fill="white"/>
</svg>
