<svg width="260" height="393" viewBox="0 0 260 393" fill="none" xmlns="http://www.w3.org/2000/svg">
<path fill-rule="evenodd" clip-rule="evenodd" d="M301.823 56.4165C303.535 47.2776 304.43 37.8509 304.43 28.2151C304.43 -55.851 236.281 -124 152.215 -124C68.149 -124 0 -55.851 0 28.2151C0 103.421 54.5408 165.888 126.226 178.22C175.391 194.686 172.021 232.41 159.363 266.922C158.746 268.432 158.167 269.963 157.629 271.513C157.35 272.274 157.104 273.017 156.888 273.743C154.099 282.503 152.595 291.835 152.595 301.519C152.595 352.043 193.552 393 244.076 393C294.599 393 335.557 352.043 335.557 301.519C335.557 292.276 334.186 283.353 331.636 274.943L334.418 274.189V52.5088L301.823 56.4165Z" fill="white"/>
</svg>
